<?xml version="1.0" standalone="no"?><!DOCTYPE svg PUBLIC "-//W3C//DTD SVG 1.1//EN" "http://www.w3.org/Graphics/SVG/1.1/DTD/svg11.dtd"><svg class="icon" height="512" viewBox="0 0 1024 1024" version="1.1" xmlns="http://www.w3.org/2000/svg"><path d="M498.604899 844.829862L136.510582 471.132145l92.827195-75.592735 209.373105 166.713548c85.831028-103.577404 276.263289-309.025829 538.87552-472.497251l22.18297 51.703383C758.486919 366.360273 561.05849 683.064823 498.604899 844.829862z m462.429595-438.198967c7.849358 33.786369 12.115314 69.108482 12.115314 105.283786 0 254.762873-206.472255 461.235127-461.235127 461.235127S50.679553 766.677554 50.679553 511.914681s206.472255-461.235127 461.235128-461.235128c61.941676 0 121.153141 12.285952 175.245459 34.468922V30.885519c-55.969338-20.476587-114.839527-30.714881-175.245459-30.714881-69.108482 0-136.169305 13.48042-199.305449 40.270622-60.917847 25.766372-115.692718 62.624229-162.788869 109.72038-46.925512 46.925512-83.954008 101.700383-109.72038 162.788868C13.48042 375.745376 0 442.806199 0 511.914681s13.48042 136.169305 40.270622 199.305449c25.766372 60.917847 62.624229 115.692718 109.720379 162.788869 47.096151 46.925512 101.700383 83.954008 162.788869 109.720379 63.136144 26.619563 130.196967 40.270622 199.305449 40.270622s136.169305-13.48042 199.305449-40.270622c60.917847-25.766372 115.692718-62.624229 162.788869-109.720379 46.925512-46.925512 83.954008-101.700383 109.72038-162.788869 26.619563-63.136144 40.270622-130.196967 40.270621-199.305449 0-35.663389-3.583403-70.985502-10.920846-105.283786h-52.215298z m0 0c7.849358 33.786369 12.115314 69.108482 12.115314 105.283786 0 254.762873-206.472255 461.235127-461.235127 461.235127S50.679553 766.677554 50.679553 511.914681s206.472255-461.235127 461.235128-461.235128c61.941676 0 121.153141 12.285952 175.245459 34.468922V30.885519c-55.969338-20.476587-114.839527-30.714881-175.245459-30.714881-69.108482 0-136.169305 13.48042-199.305449 40.270622-60.917847 25.766372-115.692718 62.624229-162.788869 109.72038-46.925512 46.925512-83.954008 101.700383-109.72038 162.788868C13.48042 375.745376 0 442.806199 0 511.914681s13.48042 136.169305 40.270622 199.305449c25.766372 60.917847 62.624229 115.692718 109.720379 162.788869 47.096151 46.925512 101.700383 83.954008 162.788869 109.720379 63.136144 26.619563 130.196967 40.270622 199.305449 40.270622s136.169305-13.48042 199.305449-40.270622c60.917847-25.766372 115.692718-62.624229 162.788869-109.720379 46.925512-46.925512 83.954008-101.700383 109.72038-162.788869 26.619563-63.136144 40.270622-130.196967 40.270621-199.305449 0-35.663389-3.583403-70.985502-10.920846-105.283786h-52.215298z m0 0c7.849358 33.786369 12.115314 69.108482 12.115314 105.283786 0 254.762873-206.472255 461.235127-461.235127 461.235127S50.679553 766.677554 50.679553 511.914681s206.472255-461.235127 461.235128-461.235128c61.941676 0 121.153141 12.285952 175.245459 34.468922V30.885519c-55.969338-20.476587-114.839527-30.714881-175.245459-30.714881-69.108482 0-136.169305 13.48042-199.305449 40.270622-60.917847 25.766372-115.692718 62.624229-162.788869 109.72038-46.925512 46.925512-83.954008 101.700383-109.72038 162.788868C13.48042 375.745376 0 442.806199 0 511.914681s13.48042 136.169305 40.270622 199.305449c25.766372 60.917847 62.624229 115.692718 109.720379 162.788869 47.096151 46.925512 101.700383 83.954008 162.788869 109.720379 63.136144 26.619563 130.196967 40.270622 199.305449 40.270622s136.169305-13.48042 199.305449-40.270622c60.917847-25.766372 115.692718-62.624229 162.788869-109.720379 46.925512-46.925512 83.954008-101.700383 109.72038-162.788869 26.619563-63.136144 40.270622-130.196967 40.270621-199.305449 0-35.663389-3.583403-70.985502-10.920846-105.283786h-52.215298z" fill="#046EB8" /></svg>