<svg id="レイヤー_1" data-name="レイヤー 1" xmlns="http://www.w3.org/2000/svg" viewBox="0 0 98.26 105.95"><defs><style>.cls-1{fill:#fff;}</style></defs><title>jw_logo_mark</title><path class="cls-1" d="M450,348.81a29.4,29.4,0,0,0,8.44,17.87L416,391.21a4.77,4.77,0,0,0,0,8.27l.26.16a18.82,18.82,0,0,1,6.1,25.91h0a.88.88,0,0,1-1.21.28L406,416.46a24.24,24.24,0,0,1-12.09-21.33,25.11,25.11,0,0,1,12.81-21.31Zm29.36,13.34a16.15,16.15,0,0,0,10.93-4.26,24.28,24.28,0,0,0-26.88-15.14,16.24,16.24,0,0,0,15.95,19.4Zm-6.94,12.4v49.26a4.77,4.77,0,0,1-7.16,4.13l-18.16-10.47a19.7,19.7,0,0,0,7.22,26.91l1.09.63a24.28,24.28,0,0,0,24.91-.26,25.08,25.08,0,0,0,11.8-21.56V372.46a29,29,0,0,1-19.7,2.09Z" transform="translate(-393.89 -342.37)"/></svg>