<?xml version="1.0" encoding="utf-8"?>
<!-- Generator: Adobe Illustrator 23.0.4, SVG Export Plug-In . SVG Version: 6.00 Build 0)  -->
<svg version="1.1" id="レイヤー_1" xmlns="http://www.w3.org/2000/svg" xmlns:xlink="http://www.w3.org/1999/xlink" x="0px"
	 y="0px" viewBox="0 0 98.26 105.95" style="enable-background:new 0 0 98.26 105.95;" xml:space="preserve">
<style type="text/css">
	.st0{fill:url(#SVGID_1_);}
</style>
<title>jw_logo_mark</title>
<linearGradient id="SVGID_1_" gradientUnits="userSpaceOnUse" x1="83.7581" y1="9.3617" x2="7.5734" y2="136.5691">
	<stop  offset="0" style="stop-color:#4070B4"/>
	<stop  offset="0.4836" style="stop-color:#64A3DC"/>
</linearGradient>
<path class="st0" d="M56.11,6.44c0.68,6.94,3.78,13.18,8.44,17.87L22.08,48.83c-2.16,1.25-2.39,3.31-2.39,4.14
	c0,0.83,0.23,2.89,2.39,4.14l0.26,0.15c8.84,5.47,11.57,17.07,6.1,25.91v0c-0.25,0.41-0.8,0.54-1.21,0.28l-15.14-9.37
	C4.45,69.6-0.07,61.63,0,52.75c0.07-8.84,5.15-16.89,12.8-21.31L56.11,6.44z M85.47,19.78c4.21,0,8.04-1.62,10.93-4.26
	c-1.98-5.01-5.51-9.34-10.28-12.13c-5.15-3.01-10.99-4.01-16.59-3c-0.2,1.02-0.31,2.07-0.31,3.14
	C69.22,12.49,76.51,19.78,85.47,19.78z M78.54,32.17v49.25c0,2.49-1.67,3.72-2.39,4.14c-0.72,0.42-2.62,1.25-4.78,0L53.22,75.08
	c-5.44,9.42-2.21,21.47,7.21,26.9l1.09,0.63c3.83,2.21,8.03,3.32,12.24,3.32c4.36,0,8.73-1.19,12.67-3.58
	c7.47-4.51,11.8-12.83,11.8-21.55V30.08c-3.87,1.87-8.19,2.94-12.76,2.94C83.08,33.03,80.76,32.71,78.54,32.17z"/>
</svg>
