<svg id="レイヤー_1" data-name="レイヤー 1" xmlns="http://www.w3.org/2000/svg" viewBox="0 0 436.83 105.95"><defs><style>.cls-1{fill:#fff;}</style></defs><title>jw_logo_w</title><path class="cls-1" d="M545,413.87a26.88,26.88,0,0,1-.73,6.54,18.21,18.21,0,0,1-2.48,5.57,25.89,25.89,0,0,1-4.69,5.23,66.53,66.53,0,0,1-7.4,5.5l-4.53-5.62a58.67,58.67,0,0,0,4.61-4.38,18.1,18.1,0,0,0,2.77-3.84,13.55,13.55,0,0,0,1.35-4,32.45,32.45,0,0,0,.34-5V377.82H545ZM533.3,366.29a6.35,6.35,0,0,1,1.8-4.57,6,6,0,0,1,4.5-1.89,6.11,6.11,0,0,1,4.54,1.89,6.26,6.26,0,0,1,1.84,4.57,6.06,6.06,0,0,1-1.84,4.5,6.26,6.26,0,0,1-4.54,1.8,6.15,6.15,0,0,1-6.3-6.3Z" transform="translate(-393.89 -342.37)"/><path class="cls-1" d="M594.34,397.65a20.6,20.6,0,0,1-6.5,15.38,20.2,20.2,0,0,1-6.61,4.11,20.9,20.9,0,0,1-7.5,1.42,22.33,22.33,0,0,1-7.8-1.38,19.06,19.06,0,0,1-11.11-10.61,22.24,22.24,0,0,1-1.69-8.92,20.8,20.8,0,0,1,2-9.34,19.65,19.65,0,0,1,5-6.49,20.57,20.57,0,0,1,6.69-3.77,21.94,21.94,0,0,1,15.33.31,18.95,18.95,0,0,1,10.73,10.88A22.72,22.72,0,0,1,594.34,397.65Zm-20.61,13a7.55,7.55,0,0,0,4-1,8.74,8.74,0,0,0,2.89-2.79,13.39,13.39,0,0,0,1.73-4.12,21.52,21.52,0,0,0,.57-5.05,21,21,0,0,0-.57-5,13.42,13.42,0,0,0-1.73-4.09,8.94,8.94,0,0,0-2.89-2.79,8.13,8.13,0,0,0-7.92,0,8.91,8.91,0,0,0-2.88,2.79,13.72,13.72,0,0,0-1.77,4.09,21.29,21.29,0,0,0,0,10.28A13.37,13.37,0,0,0,567,407a8.64,8.64,0,0,0,2.92,2.67A7.69,7.69,0,0,0,573.73,410.65Z" transform="translate(-393.89 -342.37)"/><path class="cls-1" d="M622.78,384.89a4.14,4.14,0,0,1-2.23-.42,5.66,5.66,0,0,1-1.62-1.31,11.27,11.27,0,0,1-1.3-1.92c-.41-.74-.8-1.5-1.16-2.27a25.28,25.28,0,0,1,4.5-1.38,21.23,21.23,0,0,1,4.27-.46,12.93,12.93,0,0,1,6.61,1.69,16.38,16.38,0,0,1,5,4.42,21,21,0,0,1,3.15,6.15,22.17,22.17,0,0,1,1.12,6.88,25.92,25.92,0,0,1-1.47,8.8,20.81,20.81,0,0,1-4.22,7.15A19.65,19.65,0,0,1,628.7,417a21.58,21.58,0,0,1-8.77,1.73,35,35,0,0,1-8.22-1,38.14,38.14,0,0,1-8.69-3.42v-55h10.76V410a22.83,22.83,0,0,0,3.22.62,29,29,0,0,0,3,.15,7.66,7.66,0,0,0,4-1.08,9.57,9.57,0,0,0,3.06-3,14.6,14.6,0,0,0,1.91-4.62,25,25,0,0,0,.65-5.84,24.35,24.35,0,0,0-.34-3.88,14.39,14.39,0,0,0-1.16-3.73,8,8,0,0,0-2.11-2.77A4.6,4.6,0,0,0,622.78,384.89Z" transform="translate(-393.89 -342.37)"/><path class="cls-1" d="M671.06,417.56H659.83l-14-39.74h11.3l8,28.14.53,2.3.54-2.3,5.69-15.07a26,26,0,0,1,1.73,4.07,30.19,30.19,0,0,1,1.23,5.12,24.88,24.88,0,0,1,.23,5.53,17.24,17.24,0,0,1-1.19,5.27Zm14.29,0-14.06-39.74h11.37l8,28.14.54,2.3.53-2.3,7.92-28.14H710.8l-14,39.74Z" transform="translate(-393.89 -342.37)"/><path class="cls-1" d="M717,417.56V359.29h10.76v58.27Zm24.83-28.21a5.62,5.62,0,0,0-.81-3.15A2.86,2.86,0,0,0,738.4,385a3.8,3.8,0,0,0-1.16.15,6.05,6.05,0,0,1-1.46.23,2.7,2.7,0,0,1-1.61-.34,5.29,5.29,0,0,1-1.42-1.16,10.73,10.73,0,0,1-1.23-1.65,21.91,21.91,0,0,1-1.12-2,24.67,24.67,0,0,1,6.5-2.76,22.45,22.45,0,0,1,4.88-.62,10.68,10.68,0,0,1,4,.77,9.76,9.76,0,0,1,3.44,2.31,11.45,11.45,0,0,1,2.44,3.84,14.58,14.58,0,0,1,.93,5.46v28.36H741.78Z" transform="translate(-393.89 -342.37)"/><path class="cls-1" d="M787.9,393.2a9.35,9.35,0,0,0-.15-3.39,8.07,8.07,0,0,0-1.27-2.84,6.58,6.58,0,0,0-2.23-2,6.38,6.38,0,0,0-3.11-.73A7.87,7.87,0,0,0,778,385a8.19,8.19,0,0,0-2.88,2.19A11.36,11.36,0,0,0,773,391a17.45,17.45,0,0,0-.81,5.66q0,6.68,3,10.33a9.66,9.66,0,0,0,7.84,3.66,21.14,21.14,0,0,0,5.27-.66,35.47,35.47,0,0,0,6-2.19L796.9,415a36.38,36.38,0,0,1-7.81,2.81,34,34,0,0,1-7.26.8,20,20,0,0,1-9.11-1.92,19.21,19.21,0,0,1-6.3-5,19.81,19.81,0,0,1-3.69-6.88,25.88,25.88,0,0,1-1.19-7.76,21.91,21.91,0,0,1,1.57-8.53,18.27,18.27,0,0,1,4.31-6.35,19.05,19.05,0,0,1,6.42-4,22.14,22.14,0,0,1,7.84-1.38,17.88,17.88,0,0,1,7.76,1.69,14.58,14.58,0,0,1,5.69,4.69,15.22,15.22,0,0,1,2.65,7.19,20.53,20.53,0,0,1-1.19,9.11H775.07a12.35,12.35,0,0,1,2.42-4.5,4.66,4.66,0,0,1,3.57-1.8Z" transform="translate(-393.89 -342.37)"/><path class="cls-1" d="M813.43,377.82a6.71,6.71,0,0,1,1.34,2.11,13.51,13.51,0,0,1,1,3.58l.15,1.84.77-1.84a12.22,12.22,0,0,1,4-4.77,8.86,8.86,0,0,1,5-1.69,16.08,16.08,0,0,1,5,.92l-1.23,8.69a18,18,0,0,0-2.57-.61,12.5,12.5,0,0,0-2-.16,6.4,6.4,0,0,0-3.54,1,8.65,8.65,0,0,0-2.61,2.73,14,14,0,0,0-1.66,4.15,23,23,0,0,0-.57,5.27v18.52H806.51V387.51a41.49,41.49,0,0,0-.27-4.58,37.25,37.25,0,0,0-1-5.11Z" transform="translate(-393.89 -342.37)"/><path class="cls-1" d="M450,348.81a29.4,29.4,0,0,0,8.44,17.87L416,391.21a4.77,4.77,0,0,0,0,8.27l.26.16a18.82,18.82,0,0,1,6.1,25.91h0a.88.88,0,0,1-1.21.28L406,416.46a24.24,24.24,0,0,1-12.09-21.33,25.11,25.11,0,0,1,12.81-21.31Zm29.36,13.34a16.15,16.15,0,0,0,10.93-4.26,24.28,24.28,0,0,0-26.88-15.14,16.24,16.24,0,0,0,15.95,19.4Zm-6.94,12.4v49.26a4.77,4.77,0,0,1-7.16,4.13l-18.16-10.47a19.7,19.7,0,0,0,7.22,26.91l1.09.63a24.28,24.28,0,0,0,24.91-.26,25.08,25.08,0,0,0,11.8-21.56V372.46a29,29,0,0,1-19.7,2.09Z" transform="translate(-393.89 -342.37)"/></svg>