<?xml version="1.0" encoding="utf-8"?>
<!-- Generator: Adobe Illustrator 23.0.4, SVG Export Plug-In . SVG Version: 6.00 Build 0)  -->
<svg version="1.1" id="レイヤー_1" xmlns="http://www.w3.org/2000/svg" xmlns:xlink="http://www.w3.org/1999/xlink" x="0px"
	 y="0px" viewBox="0 0 436.83 105.95" style="enable-background:new 0 0 436.83 105.95;" xml:space="preserve">
<style type="text/css">
	.st0{fill:#706F70;}
	.st1{fill:url(#SVGID_1_);}
</style>
<title>jw_logo_w</title>
<g>
	<g>
		<path class="st0" d="M152.1,72.5c0,2.41-0.25,4.59-0.74,6.53c-0.49,1.95-1.32,3.81-2.48,5.57c-1.16,1.77-2.72,3.51-4.69,5.23
			c-1.96,1.72-4.43,3.55-7.4,5.5l-4.53-5.61c1.9-1.64,3.43-3.1,4.61-4.38c1.18-1.28,2.1-2.56,2.77-3.84
			c0.67-1.28,1.11-2.63,1.35-4.04c0.23-1.41,0.34-3.06,0.34-4.96V36.45h10.76V72.5z M140.41,24.92c0-1.79,0.6-3.32,1.81-4.57
			c1.2-1.26,2.7-1.88,4.5-1.88c1.79,0,3.31,0.63,4.53,1.88c1.23,1.25,1.84,2.78,1.84,4.57c0,1.79-0.61,3.29-1.84,4.5
			c-1.23,1.2-2.74,1.81-4.53,1.81c-1.79,0-3.29-0.6-4.5-1.81C141.01,28.21,140.41,26.71,140.41,24.92z"/>
		<path class="st0" d="M201.44,56.28c0,3.28-0.6,6.21-1.81,8.8c-1.2,2.59-2.77,4.78-4.69,6.57c-1.92,1.79-4.13,3.16-6.61,4.11
			c-2.49,0.95-4.99,1.42-7.5,1.42c-2.72,0-5.32-0.46-7.8-1.38c-2.49-0.92-4.68-2.27-6.57-4.04c-1.9-1.77-3.41-3.96-4.53-6.57
			c-1.13-2.61-1.69-5.58-1.69-8.91c0-3.59,0.65-6.7,1.96-9.34c1.31-2.64,2.97-4.81,5-6.5c2.02-1.69,4.25-2.95,6.69-3.76
			c2.43-0.82,4.75-1.23,6.96-1.23c3.08,0,5.87,0.51,8.38,1.54c2.51,1.03,4.68,2.46,6.5,4.31c1.82,1.84,3.23,4.04,4.23,6.57
			C200.94,50.4,201.44,53.2,201.44,56.28z M180.84,69.27c1.49,0,2.81-0.34,3.96-1.03c1.15-0.69,2.11-1.61,2.88-2.79
			c0.77-1.17,1.34-2.55,1.73-4.13c0.38-1.58,0.58-3.26,0.58-5.04c0-1.78-0.19-3.45-0.58-5.01c-0.39-1.55-0.96-2.92-1.73-4.09
			c-0.77-1.17-1.73-2.1-2.88-2.79c-1.15-0.69-2.47-1.03-3.96-1.03s-2.81,0.34-3.96,1.03s-2.11,1.62-2.88,2.79
			c-0.77,1.17-1.36,2.54-1.77,4.09c-0.41,1.55-0.61,3.22-0.61,5.01c0,1.93,0.22,3.69,0.65,5.27c0.43,1.58,1.05,2.94,1.84,4.09
			s1.77,2.04,2.92,2.68C178.19,68.95,179.46,69.27,180.84,69.27z"/>
		<path class="st0" d="M229.88,43.52c-0.87,0.05-1.61-0.09-2.23-0.42c-0.61-0.33-1.15-0.77-1.61-1.31c-0.46-0.54-0.9-1.18-1.31-1.92
			c-0.41-0.74-0.79-1.5-1.15-2.27c1.49-0.61,2.98-1.08,4.5-1.38c1.51-0.31,2.93-0.46,4.27-0.46c2.46,0,4.66,0.57,6.61,1.69
			c1.95,1.13,3.6,2.6,4.96,4.42s2.41,3.87,3.15,6.15c0.74,2.28,1.11,4.57,1.11,6.88c0,3.13-0.49,6.06-1.46,8.8s-2.38,5.12-4.23,7.15
			c-1.85,2.03-4.08,3.61-6.69,4.77c-2.61,1.15-5.53,1.73-8.76,1.73c-2.82,0-5.56-0.32-8.23-0.96c-2.66-0.64-5.56-1.78-8.68-3.42
			V17.92h10.76v50.73c1.17,0.31,2.24,0.51,3.21,0.61c0.97,0.1,1.96,0.15,2.98,0.15c1.48,0,2.82-0.36,4.01-1.08
			c1.2-0.72,2.22-1.72,3.06-3c0.84-1.28,1.48-2.82,1.91-4.61c0.43-1.79,0.65-3.74,0.65-5.84c0-1.23-0.11-2.52-0.34-3.88
			c-0.23-1.36-0.61-2.6-1.15-3.73c-0.54-1.13-1.24-2.05-2.11-2.77C232.24,43.8,231.16,43.47,229.88,43.52z"/>
		<path class="st0" d="M278.15,76.19h-11.22l-13.99-39.74h11.3l7.99,28.13l0.54,2.31l0.54-2.31L279,49.51
			c0.61,1.13,1.19,2.49,1.73,4.08c0.54,1.59,0.95,3.29,1.23,5.11s0.36,3.66,0.23,5.53c-0.13,1.87-0.53,3.63-1.19,5.26L278.15,76.19z
			 M292.45,76.19l-14.07-39.74h11.38l8,28.13l0.54,2.31l0.54-2.31l7.92-28.13h11.14L303.9,76.19H292.45z"/>
		<path class="st0" d="M324.04,76.19V17.92h10.76v58.26H324.04z M348.87,47.98c0-1.28-0.27-2.33-0.81-3.15
			c-0.54-0.82-1.4-1.23-2.58-1.23c-0.46,0-0.84,0.05-1.15,0.15c-0.31,0.1-0.79,0.18-1.46,0.23c-0.57,0.05-1.1-0.07-1.61-0.35
			c-0.51-0.28-0.99-0.66-1.42-1.15c-0.43-0.49-0.84-1.04-1.23-1.65s-0.76-1.28-1.11-2c2.51-1.43,4.67-2.36,6.5-2.77
			c1.82-0.41,3.45-0.62,4.88-0.62c1.34,0,2.66,0.26,3.95,0.77c1.29,0.51,2.44,1.28,3.45,2.31c1.01,1.02,1.82,2.31,2.44,3.84
			c0.62,1.54,0.93,3.36,0.93,5.46v28.36h-10.76V47.98z"/>
		<path class="st0" d="M394.99,51.82c0.15-1.18,0.1-2.31-0.15-3.38c-0.26-1.08-0.68-2.02-1.27-2.84c-0.59-0.82-1.33-1.47-2.23-1.96
			c-0.9-0.49-1.94-0.73-3.11-0.73c-1.08,0-2.14,0.23-3.19,0.69c-1.05,0.46-2.01,1.19-2.88,2.19c-0.87,1-1.58,2.28-2.11,3.84
			c-0.54,1.56-0.81,3.45-0.81,5.65c0,4.46,1,7.91,3,10.34c2,2.43,4.61,3.65,7.84,3.65c1.79,0,3.55-0.22,5.27-0.65
			c1.72-0.44,3.7-1.17,5.96-2.19l2.69,7.15c-2.77,1.33-5.37,2.27-7.8,2.81c-2.43,0.54-4.85,0.81-7.26,0.81
			c-3.54,0-6.57-0.64-9.11-1.92c-2.54-1.28-4.64-2.93-6.3-4.96c-1.67-2.02-2.9-4.32-3.69-6.88c-0.79-2.56-1.19-5.15-1.19-7.76
			c0-3.17,0.52-6.02,1.58-8.53c1.05-2.51,2.49-4.62,4.31-6.34c1.82-1.72,3.96-3.04,6.42-3.96c2.46-0.92,5.07-1.38,7.84-1.38
			c2.82,0,5.41,0.57,7.76,1.69c2.36,1.13,4.25,2.69,5.69,4.69c1.43,2,2.32,4.39,2.65,7.19c0.33,2.79-0.07,5.83-1.19,9.11h-21.52
			c0.56-1.79,1.37-3.29,2.42-4.5c1.05-1.2,2.24-1.81,3.57-1.81H394.99z"/>
		<path class="st0" d="M420.5,36.45c0.41,0.36,0.86,1.07,1.35,2.11c0.49,1.05,0.83,2.24,1.04,3.57l0.15,1.85l0.77-1.85
			c1.02-2.05,2.37-3.64,4.04-4.76c1.67-1.13,3.32-1.69,4.96-1.69c1.49,0,3.15,0.31,5,0.92l-1.23,8.69
			c-1.03-0.31-1.88-0.51-2.58-0.61c-0.69-0.1-1.34-0.15-1.96-0.15c-1.33,0-2.51,0.33-3.54,1c-1.03,0.67-1.9,1.58-2.61,2.73
			c-0.72,1.15-1.27,2.54-1.65,4.15c-0.39,1.61-0.58,3.37-0.58,5.26v18.52h-10.07V46.13c0-1.43-0.09-2.96-0.27-4.57
			c-0.18-1.61-0.5-3.32-0.96-5.11H420.5z"/>
	</g>
	<linearGradient id="SVGID_1_" gradientUnits="userSpaceOnUse" x1="84.7879" y1="10.3634" x2="8.5943" y2="137.5857">
		<stop  offset="0" style="stop-color:#4070B4"/>
		<stop  offset="0.4836" style="stop-color:#64A3DC"/>
	</linearGradient>
	<path class="st1" d="M57.14,7.44c0.68,6.94,3.78,13.18,8.44,17.87L23.11,49.83c-2.16,1.25-2.39,3.31-2.39,4.14
		c0,0.83,0.23,2.89,2.39,4.14l0.26,0.15c8.84,5.47,11.57,17.07,6.1,25.91v0c-0.25,0.41-0.8,0.54-1.21,0.28l-15.15-9.37
		C5.48,70.61,0.95,62.64,1.02,53.76c0.07-8.84,5.15-16.89,12.8-21.31L57.14,7.44z M86.5,20.78c4.21,0,8.04-1.62,10.93-4.26
		c-1.98-5.01-5.51-9.34-10.28-12.13c-5.15-3.01-10.99-4.01-16.6-3c-0.2,1.02-0.31,2.07-0.31,3.14
		C70.24,13.49,77.54,20.78,86.5,20.78z M79.57,33.17v49.25c0,2.49-1.67,3.72-2.39,4.14c-0.72,0.42-2.62,1.25-4.78,0L54.25,76.09
		c-5.44,9.42-2.21,21.47,7.21,26.91l1.09,0.63c3.83,2.21,8.03,3.32,12.24,3.32c4.36,0,8.73-1.19,12.67-3.58
		c7.47-4.51,11.8-12.83,11.8-21.56V31.09c-3.87,1.87-8.19,2.94-12.76,2.94C84.11,34.03,81.79,33.71,79.57,33.17z"/>
</g>
</svg>
